<svg width="16" height="16" viewBox="0 0 16 16" fill="none" xmlns="http://www.w3.org/2000/svg">
<path d="M5.1839 1.62604L5.9019 1.3967C6.5739 1.18204 7.29257 1.52937 7.58057 2.20804L8.1539 3.56004C8.4039 4.1487 8.26523 4.84137 7.81123 5.27204L6.54923 6.4707C6.62723 7.18804 6.8679 7.89404 7.2719 8.5887C7.65579 9.26082 8.17061 9.8491 8.7859 10.3187L10.3032 9.81204C10.8779 9.6207 11.5039 9.84137 11.8566 10.3594L12.6779 11.566C13.0886 12.1687 13.0146 12.9994 12.5059 13.51L11.9606 14.0574C11.4179 14.602 10.6432 14.8 9.9259 14.576C8.23323 14.048 6.67723 12.4807 5.25723 9.87404C3.83523 7.26337 3.3339 5.04737 3.7519 3.2287C3.9279 2.46337 4.47323 1.85337 5.18523 1.62604" fill="#F8F8FF"/>
</svg>
