<svg width="46" height="44" viewBox="0 0 46 44" fill="none" xmlns="http://www.w3.org/2000/svg">
<path fill-rule="evenodd" clip-rule="evenodd" d="M24.0794 0.578667C23.8684 0.482709 23.6393 0.43306 23.4075 0.43306C23.1758 0.43306 22.9467 0.482709 22.7357 0.578667L14.2222 4.45405L23.401 8.63453L32.5864 4.4508L24.0794 0.578667ZM12.6967 17.2357V7.32326L21.7847 11.4615V22.4158L13.6412 18.7125C13.3577 18.5835 13.1172 18.3757 12.9486 18.1139C12.78 17.852 12.6903 17.5471 12.6902 17.2357H12.6967ZM25.0304 39.0209V28.1802L33.638 32.101V43.0553L25.5043 39.352C25.3266 39.2712 25.1682 39.159 25.0304 39.0209ZM36.8837 43.0618V32.101L45.9815 27.9595V37.8752C45.9814 38.1866 45.8917 38.4915 45.7231 38.7533C45.5544 39.0152 45.314 39.223 45.0305 39.352L36.8837 43.0618ZM21.7782 28.1802V39.0339C21.6432 39.1661 21.4861 39.2738 21.3141 39.352L13.1673 43.0618V32.101L21.7782 28.1802ZM9.9216 32.101V43.0553L1.79108 39.352C1.50757 39.223 1.26714 39.0152 1.09851 38.7533C0.929886 38.4915 0.840174 38.1866 0.840088 37.8752V27.9628L9.92809 32.101H9.9216ZM25.0239 22.4223V11.4583L34.1216 7.31677V17.2357C34.1216 17.5471 34.0318 17.852 33.8632 18.1139C33.6946 18.3757 33.4542 18.5835 33.1706 18.7125L25.0239 22.4223ZM34.5923 21.2214C34.8033 21.1255 35.0323 21.0758 35.2641 21.0758C35.4959 21.0758 35.725 21.1255 35.936 21.2214L44.4398 25.0903L35.2544 29.274L26.0853 25.0903L34.5955 21.2149L34.5923 21.2214ZM10.8791 21.2214C11.0901 21.1255 11.3192 21.0758 11.5509 21.0758C11.7827 21.0758 12.0118 21.1255 12.2228 21.2214L20.7266 25.0903L11.5445 29.2773L2.36882 25.0903L10.8791 21.2214Z" fill="#2C3E50"/>
</svg>
