<svg width="60" height="60" viewBox="0 0 60 60" fill="none" xmlns="http://www.w3.org/2000/svg">
<g clip-path="url(#clip0_0_90)">
<path d="M30 0L60 12.8571V17.1429H56C56 17.7232 55.7865 18.2254 55.3594 18.6496C54.9323 19.0737 54.4271 19.2857 53.8438 19.2857H6.15625C5.57292 19.2857 5.06771 19.0737 4.64062 18.6496C4.21354 18.2254 4 17.7232 4 17.1429H0V12.8571L30 0ZM8 21.4286H16V47.1429H20V21.4286H28V47.1429H32V21.4286H40V47.1429H44V21.4286H52V47.1429H53.8438C54.4271 47.1429 54.9323 47.3549 55.3594 47.779C55.7865 48.2031 56 48.7054 56 49.2857V51.4286H4V49.2857C4 48.7054 4.21354 48.2031 4.64062 47.779C5.06771 47.3549 5.57292 47.1429 6.15625 47.1429H8V21.4286ZM57.8438 53.5714C58.4271 53.5714 58.9323 53.7835 59.3594 54.2076C59.7865 54.6317 60 55.1339 60 55.7143V60H0V55.7143C0 55.1339 0.213542 54.6317 0.640625 54.2076C1.06771 53.7835 1.57292 53.5714 2.15625 53.5714H57.8438Z" fill="#F8F8FF"/>
</g>
<defs>
<clipPath id="clip0_0_90">
<rect width="60" height="60" fill="white"/>
</clipPath>
</defs>
</svg>
