<svg width="60" height="60" viewBox="0 0 60 60" fill="none" xmlns="http://www.w3.org/2000/svg">
<path d="M55.3846 0H4.61538C3.39131 0 2.21737 0.574673 1.35181 1.5976C0.486262 2.62052 0 4.00791 0 5.45455V54.5455C0 55.9921 0.486262 57.3795 1.35181 58.4024C2.21737 59.4253 3.39131 60 4.61538 60H8.47788C8.91463 60.0002 9.34246 59.8539 9.71164 59.5781C10.0808 59.3023 10.3762 58.9084 10.5635 58.442C11.6856 55.6421 13.4573 53.2761 15.6725 51.6194C17.8877 49.9626 20.4554 49.083 23.0769 49.083C25.6985 49.083 28.2661 49.9626 30.4813 51.6194C32.6965 53.2761 34.4682 55.6421 35.5904 58.442C35.7776 58.9084 36.073 59.3023 36.4422 59.5781C36.8114 59.8539 37.2392 60.0002 37.676 60H55.3846C56.6087 60 57.7826 59.4253 58.6482 58.4024C59.5137 57.3795 60 55.9921 60 54.5455V5.45455C60 4.00791 59.5137 2.62052 58.6482 1.5976C57.7826 0.574673 56.6087 0 55.3846 0ZM23.0769 43.6364C21.2512 43.6364 19.4666 42.9966 17.9486 41.7979C16.4306 40.5991 15.2475 38.8954 14.5488 36.902C13.8501 34.9086 13.6673 32.7152 14.0235 30.599C14.3797 28.4829 15.2588 26.539 16.5498 25.0134C17.8407 23.4877 19.4855 22.4487 21.2761 22.0278C23.0667 21.6069 24.9227 21.8229 26.6094 22.6486C28.2961 23.4743 29.7377 24.8725 30.752 26.6665C31.7663 28.4605 32.3077 30.5697 32.3077 32.7273C32.3077 35.6205 31.3352 38.3953 29.6041 40.4412C27.873 42.487 25.5251 43.6364 23.0769 43.6364ZM55.3846 54.5455H39.0663C38.0603 52.4954 36.7781 50.6531 35.2702 49.0909H48.4615C49.0736 49.0909 49.6605 48.8036 50.0933 48.2921C50.5261 47.7806 50.7692 47.087 50.7692 46.3636V13.6364C50.7692 12.913 50.5261 12.2194 50.0933 11.7079C49.6605 11.1964 49.0736 10.9091 48.4615 10.9091H11.5385C10.9264 10.9091 10.3395 11.1964 9.90668 11.7079C9.4739 12.2194 9.23077 12.913 9.23077 13.6364V46.3636C9.23051 46.9685 9.4004 47.5563 9.71371 48.0346C10.027 48.5129 10.466 48.8545 10.9615 49.0057C9.41888 50.5853 8.10962 52.4575 7.0875 54.5455H4.61538V5.45455H55.3846V54.5455Z" fill="#F8F8FF"/>
</svg>
