<svg width="76" height="76" viewBox="0 0 76 76" fill="none" xmlns="http://www.w3.org/2000/svg">
<path d="M26.477 2.49946C18.8834 5.13374 12.3347 10.1337 7.79278 16.7649C3.25087 23.3961 0.955157 31.3091 1.24283 39.3414C1.53051 47.3738 4.38642 55.1023 9.39107 61.3916C14.3957 67.6809 21.2853 72.1995 29.0479 74.2838C35.3412 75.9077 41.9347 75.979 48.2616 74.4917C53.9932 73.2042 59.2922 70.4504 63.6398 66.4998C68.1646 62.2625 71.449 56.872 73.1398 50.9079C74.9769 44.4221 75.3039 37.6016 74.0957 30.9698H38.7557V45.6295H59.2223C58.8132 47.9676 57.9367 50.1991 56.6451 52.1906C55.3535 54.182 53.6734 55.8925 51.7054 57.2195C49.2065 58.8733 46.3891 59.9857 43.4345 60.4851C40.4713 61.0362 37.432 61.0362 34.4688 60.4851C31.4654 59.8648 28.6242 58.6252 26.1266 56.8454C22.1138 54.0048 19.1007 49.9693 17.5173 45.3148C15.9076 40.573 15.9076 35.4325 17.5173 30.6907C18.6444 27.367 20.5076 24.3408 22.9679 21.8379C25.7834 18.9211 29.3479 16.8361 33.2704 15.8118C37.1928 14.7874 41.3217 14.8633 45.2038 16.031C48.2367 16.9616 51.0101 18.5882 53.3026 20.781C55.6103 18.4852 57.914 16.1834 60.2138 13.8757C61.4013 12.6348 62.6957 11.4532 63.8654 10.1826C60.3654 6.92598 56.2574 4.39177 51.7766 2.72509C43.6168 -0.237785 34.6884 -0.31741 26.477 2.49946Z" fill="#F8F8FF"/>
<path d="M26.4772 2.49942C34.6879 -0.319368 43.6163 -0.24184 51.7769 2.71911C56.2584 4.39711 60.3646 6.94352 63.8597 10.2122C62.6722 11.4829 61.4194 12.6704 60.2081 13.9054C57.9044 16.2051 55.6026 18.497 53.3028 20.781C51.0103 18.5881 48.2369 16.9615 45.2041 16.031C41.3232 14.8592 37.1945 14.7789 33.271 15.7991C29.3475 16.8192 25.7808 18.9003 22.9622 21.8141C20.5019 24.317 18.6387 27.3432 17.5116 30.6669L5.20312 21.1372C9.6088 12.4006 17.2369 5.71769 26.4772 2.49942Z" fill="#E33629"/>
<path d="M1.93545 30.5781C2.59653 27.2992 3.69489 24.124 5.20108 21.1375L17.5095 30.6909C15.8998 35.4327 15.8998 40.5732 17.5095 45.315C13.4087 48.4816 9.30587 51.6641 5.20108 54.8625C1.43166 47.3593 0.282052 38.8104 1.93545 30.5781Z" fill="#F8BD00"/>
<path d="M38.7526 30.9639H74.0926C75.3009 37.5957 74.9739 44.4162 73.1367 50.902C71.4459 56.8661 68.1616 62.2565 63.6367 66.4939C59.6645 63.3945 55.6745 60.3189 51.7023 57.2195C53.6717 55.8911 55.3525 54.1789 56.6442 52.1853C57.9358 50.1917 58.8117 47.9578 59.2192 45.6176H38.7526C38.7467 40.737 38.7526 35.8504 38.7526 30.9639Z" fill="#587DBD"/>
<path d="M5.19531 54.8629C9.3001 51.6963 13.4029 48.5138 17.5038 45.3154C19.0903 49.9716 22.1077 54.0073 26.125 56.8461C28.6303 58.6176 31.4776 59.8471 34.485 60.4561C37.4481 61.0072 40.4875 61.0072 43.4506 60.4561C46.4053 59.9566 49.2227 58.8442 51.7216 57.1904C55.6938 60.2898 59.6838 63.3654 63.6559 66.4648C59.309 70.4176 54.01 73.1735 48.2778 74.4626C41.9509 75.95 35.3574 75.8787 29.0641 74.2548C24.0867 72.9258 19.4374 70.583 15.4078 67.3732C11.1431 63.9866 7.65958 59.7193 5.19531 54.8629Z" fill="#319F43"/>
</svg>
