<svg width="47" height="46" viewBox="0 0 47 46" fill="none" xmlns="http://www.w3.org/2000/svg">
<g clip-path="url(#clip0_0_75)">
<path d="M23.4387 3.45023L0.71875 14.0529L6.77742 16.7793V21.9292C4.95982 22.535 3.74808 24.3526 3.74808 26.1702C3.74808 27.9878 4.95982 29.8054 6.77742 30.4113V30.7142L4.05102 37.0758C3.14222 39.8022 3.74808 42.8316 8.29208 42.8316C12.8361 42.8316 13.442 39.8022 12.5332 37.0758L9.80675 30.7142C11.6244 29.8054 12.8361 28.2908 12.8361 26.1702C12.8361 24.0497 11.6244 22.535 9.80675 21.9292V18.294L23.4387 24.6556L46.1587 14.0529L23.4387 3.45023ZM36.7678 23.1409L23.1358 29.1996L15.8654 25.8673V26.1702C15.8654 28.2908 14.9566 30.1084 13.4419 31.623L15.2596 35.8641V36.167C15.5625 37.3788 15.8654 38.5905 15.5625 39.8022C17.683 40.711 20.1065 41.3169 23.1358 41.3169C33.1326 41.3169 36.7678 35.2582 36.7678 32.2289V23.1409Z" fill="#2C3E50"/>
</g>
<defs>
<clipPath id="clip0_0_75">
<rect width="45.44" height="45.44" fill="white" transform="translate(0.71875 0.420898)"/>
</clipPath>
</defs>
</svg>
