<svg width="79" height="30" viewBox="0 0 79 30" fill="none" xmlns="http://www.w3.org/2000/svg">
<path d="M76.6102 0C75.9763 0 75.3685 0.259021 74.9203 0.720082C74.4721 1.18114 74.2203 1.80648 74.2203 2.45851C74.2203 3.11055 74.4721 3.73589 74.9203 4.19695C75.3685 4.65801 75.9763 4.91703 76.6102 4.91703C77.244 4.91703 77.8518 4.65801 78.3 4.19695C78.7482 3.73589 79 3.11055 79 2.45851C79 1.80648 78.7482 1.18114 78.3 0.720082C77.8518 0.259021 77.244 0 76.6102 0ZM76.6102 0.365729C77.7294 0.365729 78.6511 1.31392 78.6511 2.4619C78.6504 2.8762 78.5304 3.281 78.3063 3.6252C78.0821 3.96939 77.7639 4.23754 77.3917 4.39577C77.0195 4.55401 76.6101 4.59523 76.2151 4.51424C75.8202 4.43325 75.4574 4.23368 75.1726 3.94073C74.8879 3.64778 74.6939 3.27459 74.6151 2.86829C74.5364 2.46199 74.5765 2.0408 74.7303 1.65791C74.8841 1.27502 75.1448 0.94761 75.4793 0.717022C75.8139 0.486435 76.2074 0.366399 76.6102 0.365729ZM26.7854 0.545207C23.8228 0.545207 21.6831 2.54995 21.3901 6.10227H19.1023V7.86996H21.3572C21.3671 13.5117 21.3506 19.1602 21.3506 24.7951H23.9117C23.9018 19.1534 23.9051 13.5117 23.9051 7.86996H29.6592C27.5326 9.64443 26.1468 12.5195 26.1468 15.7738C26.1468 21.1683 29.9554 25.5401 34.6462 25.5401C39.3403 25.5401 43.1457 21.1683 43.1457 15.7738C43.1457 15.1304 43.0897 14.5005 42.9877 13.8943C43.8304 15.2929 45.4499 15.9702 47.6225 16.9353C50.1835 18.0528 51.6155 19.0247 51.6155 20.6874C51.6155 22.6786 49.7852 23.7183 47.7246 23.7013C45.7133 23.7013 44.1431 22.8581 42.3918 21.2293V24.3583C43.4617 25.066 45.1142 25.469 46.9016 25.469C49.1532 25.4589 53.7881 24.6224 53.7881 19.7934C53.7716 16.8947 51.4344 15.6485 48.8965 14.5141C45.8055 12.9394 44.627 12.6075 44.6566 10.806C44.6566 8.40162 46.6909 7.68371 48.2776 7.68371C48.9689 7.68371 49.5614 7.7853 50.1177 7.97494C51.1579 8.38131 51.5003 9.17711 51.8722 10.044C53.6103 14.2296 55.276 18.4456 56.9712 22.6515C56.2292 24.3964 55.4422 26.1207 54.611 27.8225L54.5979 27.8564L54.0712 28.8622L53.4786 30H55.987C57.0799 27.5144 61.7246 15.8822 62.7253 13.3762C63.3837 15.1812 64.9802 15.9059 67.4326 16.9963C69.9936 18.1104 71.4288 19.0823 71.4288 20.745C71.4288 22.7396 69.5986 23.7724 67.5412 23.7555C65.4509 23.7555 63.8347 22.8446 62.0044 21.0904L61.8398 20.9516V24.1382C62.8603 25.0186 64.7037 25.5266 66.7183 25.5266C68.9699 25.5198 73.6014 24.6834 73.6014 19.8544C73.5883 16.9556 71.2478 15.7027 68.7098 14.5716C65.6221 12.9936 64.5621 12.6617 64.5951 10.8568C64.5951 8.45581 66.501 7.73451 68.0844 7.73451C69.8916 7.73451 71.0338 8.42533 72.6271 9.61395V6.8168C71.3987 6.35908 70.0982 6.14088 68.7921 6.17338C65.8624 6.16999 63.2092 7.27057 62.5377 9.82052L58.9002 19.0789L58.5184 20.2438L58.1859 19.0789C56.5334 14.9848 54.9139 10.8703 53.2943 6.78632C52.2541 6.50186 50.5588 6.10227 49.3639 6.12259H48.9853C45.5948 6.11581 42.3227 7.58889 42.3227 11.0566C42.3227 11.2597 42.3326 11.446 42.3425 11.6322C40.9862 8.31019 38.0532 6.01084 34.6462 6.01084C34.2418 6.00878 33.8379 6.03935 33.4381 6.10227H23.8787C23.4837 3.62005 24.6128 2.20792 26.3081 2.20792C28.4379 2.20792 29.3497 2.85811 30.2747 3.7318H30.3669C30.3768 2.90213 30.3735 1.93363 30.3735 1.04301C29.7645 0.751776 28.7078 0.545207 26.7854 0.545207ZM0 0.629867V24.7985H2.83095V0.629867H0ZM75.7115 1.10057V3.69116H76.1691V2.64815H76.7089L77.1006 3.69116H77.6076L77.1467 2.57365C77.308 2.48899 77.5812 2.39756 77.5812 1.9404C77.5812 1.18523 77.0315 1.10057 76.5542 1.10057H75.7115ZM76.1691 1.54758H76.676C76.9492 1.54758 77.1006 1.66271 77.1006 1.89299C77.1006 2.12326 76.9295 2.23163 76.7155 2.23163H76.1691V1.54758ZM13.7334 6.04809C10.6227 6.04809 9.31251 7.18253 8.27559 8.32712C8.22669 8.39414 8.18785 8.46834 8.16038 8.54724H8.13076V8.40162L8.09784 6.29191H5.61582V24.7985H8.16697V11.2631C8.24268 9.60379 10.5173 7.96478 12.2883 7.96478C14.4214 7.96478 16.166 9.44125 16.166 11.4832V24.7985H18.7172L18.7106 10.2777C18.6349 8.64206 16.7059 6.0447 13.7301 6.0447M34.4125 7.92753C37.6187 7.86996 40.2818 11.385 40.3542 15.7772C40.4266 20.1693 37.8854 23.7758 34.6759 23.8368C31.4696 23.891 28.8099 20.3827 28.7374 15.9905C28.6617 11.5984 31.2063 7.9851 34.4125 7.92753Z" fill="#F8F8FF"/>
</svg>
