<svg width="59" height="59" viewBox="0 0 59 59" fill="none" xmlns="http://www.w3.org/2000/svg">
<path d="M53.4688 1.38278H5.53125C4.44358 1.37171 3.39594 1.79258 2.61821 2.55302C1.84048 3.31347 1.39618 4.35139 1.38281 5.43903V53.5701C1.3986 54.6562 1.84396 55.6917 2.62143 56.4502C3.3989 57.2086 4.44516 57.6282 5.53125 57.6172H53.4688C54.5565 57.6258 55.6034 57.2035 56.3807 56.4426C57.1581 55.6817 57.6026 54.644 57.6172 53.5563V5.4252C57.5978 4.34075 57.1511 3.30778 56.3743 2.55082C55.5975 1.79387 54.5533 1.37411 53.4688 1.38278Z" fill="#0076B2"/>
<path d="M9.70672 22.4609H18.0543V49.3198H9.70672V22.4609ZM13.8828 9.09375C14.8402 9.09375 15.7762 9.37772 16.5722 9.90973C17.3682 10.4417 17.9885 11.1979 18.3547 12.0825C18.7209 12.9672 18.8164 13.9405 18.6293 14.8795C18.4422 15.8185 17.9808 16.6808 17.3035 17.3575C16.6261 18.0342 15.7633 18.4948 14.8242 18.681C13.8851 18.8672 12.9118 18.7707 12.0275 18.4037C11.1432 18.0367 10.3876 17.4156 9.85639 16.6191C9.32514 15.8226 9.04206 14.8864 9.04297 13.929C9.04419 12.6462 9.55464 11.4163 10.4622 10.5097C11.3697 9.60303 12.6 9.09375 13.8828 9.09375ZM23.2905 22.4609H31.2924V26.1484H31.403C32.5185 24.0373 35.2381 21.811 39.2989 21.811C47.7525 21.7926 49.3197 27.3561 49.3197 34.5698V49.3198H40.9721V36.2522C40.9721 33.1409 40.9168 29.1353 36.6347 29.1353C32.3526 29.1353 31.6243 32.5278 31.6243 36.0494V49.3198H23.2905V22.4609Z" fill="#F8F8FF"/>
</svg>
