<svg width="9" height="12" viewBox="0 0 9 12" fill="none" xmlns="http://www.w3.org/2000/svg">
<path d="M4.1165 0.28125C2.46373 0.28125 0.9535 1.41534 0.9535 3.74627V5.11404C0.314127 5.1882 0 5.55853 0 6.28801V10.6364C0 11.4571 0.390953 11.8274 1.17867 11.8274H7.05433C7.84205 11.8274 8.23301 11.4571 8.23301 10.6364V6.28242C8.23301 5.55294 7.91913 5.16534 7.2795 5.09701V3.74627C7.2795 1.41534 5.76902 0.28125 4.1165 0.28125ZM1.90725 3.6208C1.90725 2.03078 2.89032 1.15881 4.1165 1.15881C5.34268 1.15881 6.32575 2.03078 6.32575 3.6208V5.09118L1.90725 5.09677V3.6208Z" fill="#2C3E50"/>
</svg>
