<svg width="16" height="16" viewBox="0 0 16 16" fill="none" xmlns="http://www.w3.org/2000/svg">
<path d="M2.66927 13.3337C2.3026 13.3337 1.98883 13.2032 1.72794 12.9423C1.46705 12.6814 1.33638 12.3674 1.33594 12.0003V4.00033C1.33594 3.63366 1.4666 3.31988 1.72794 3.05899C1.98927 2.7981 2.30305 2.66744 2.66927 2.66699H13.3359C13.7026 2.66699 14.0166 2.79766 14.2779 3.05899C14.5393 3.32033 14.6697 3.6341 14.6693 4.00033V12.0003C14.6693 12.367 14.5388 12.681 14.2779 12.9423C14.017 13.2037 13.703 13.3341 13.3359 13.3337H2.66927ZM8.0026 8.66699L13.3359 5.33366V4.00033L8.0026 7.33366L2.66927 4.00033V5.33366L8.0026 8.66699Z" fill="#F8F8FF"/>
</svg>
