<svg width="119" height="24" viewBox="0 0 119 24" fill="none" xmlns="http://www.w3.org/2000/svg">
<g clip-path="url(#clip0_0_196)">
<path d="M3.89888 15.699C3.89888 17.0675 4.20149 18.1182 4.59684 18.7537C5.11514 19.5863 5.88841 19.9392 6.67702 19.9392C7.69363 19.9392 8.62378 19.6885 10.4162 17.2269C11.8524 15.2538 13.5446 12.4846 14.683 10.7485L16.611 7.80715C17.9504 5.76438 19.5007 3.49362 21.278 1.95438C22.7295 0.697846 24.2948 0 25.8702 0C28.5151 0 31.0346 1.52169 32.9625 4.37585C35.0727 7.50185 36.097 11.439 36.097 15.5022C36.097 17.9176 35.6175 19.6922 34.8015 21.0944C34.0131 22.4504 32.4768 23.8052 29.892 23.8052V19.9392C32.1051 19.9392 32.6574 17.9199 32.6574 15.6092C32.6574 12.3164 31.8841 8.66215 30.1807 6.051C28.9721 4.19885 27.4056 3.06715 25.6819 3.06715C23.8179 3.06715 22.3178 4.46331 20.6319 6.95215C19.7356 8.27446 18.8155 9.88592 17.7824 11.7044L16.6451 13.7049C14.3604 17.7268 13.7817 18.6429 12.6396 20.1547C10.6375 22.8018 8.92779 23.8055 6.67702 23.8055C4.00695 23.8055 2.31864 22.6574 1.27321 20.9275C0.419057 19.5178 0 17.6682 0 15.5608L3.89888 15.699Z" fill="#0081FB"/>
<path d="M3.07422 4.64885C4.86154 1.91308 7.44143 0 10.3999 0C12.1133 0 13.8168 0.503538 15.5955 1.94538C17.5411 3.52223 19.615 6.11838 22.2021 10.3971L23.1294 11.9326C25.3691 15.6367 26.6432 17.5424 27.3888 18.441C28.3478 19.5951 29.0195 19.9392 29.892 19.9392C32.1049 19.9392 32.6571 17.9199 32.6571 15.6092L36.0967 15.5022C36.0967 17.9176 35.6172 19.6922 34.8012 21.0944C34.0128 22.4504 32.4765 23.8052 29.8918 23.8052C28.285 23.8052 26.8617 23.4588 25.2875 21.9845C24.0775 20.8528 22.6627 18.8423 21.5743 17.0352L18.3371 11.6658C16.7125 8.97115 15.2227 6.96208 14.3604 6.05215C13.4326 5.07369 12.2402 3.89215 10.3372 3.89215C8.79691 3.89215 7.48884 4.96546 6.39437 6.60692L3.07422 4.64885Z" fill="url(#paint0_linear_0_196)"/>
<path d="M10.3372 3.89238C8.79694 3.89238 7.48886 4.96546 6.39439 6.60692C4.84646 8.92615 3.89888 12.3812 3.89888 15.699C3.89888 17.0675 4.20149 18.1182 4.59684 18.7537L1.27274 20.9275C0.419289 19.5178 0 17.6682 0 15.5608C0 11.7282 1.05938 7.73354 3.07424 4.64885C4.86157 1.91308 7.44145 0 10.3999 0L10.3372 3.89238Z" fill="url(#paint1_linear_0_196)"/>
<path d="M43.676 0.752808H48.1862L55.8547 14.5274L63.5246 0.752808H67.9367V23.3867H64.2574V6.03973L57.5316 18.0522H54.0799L47.3555 6.03973V23.3867H43.6763L43.676 0.752808ZM79.465 9.19204C76.8266 9.19204 75.2373 11.1635 74.857 13.6053H83.8123C83.6277 11.0899 82.1665 9.19204 79.465 9.19204ZM71.2094 14.9959C71.2094 9.8585 74.5533 6.11935 79.5292 6.11935C84.4235 6.11935 87.3455 9.81096 87.3455 15.27V16.2734H74.857C75.3 18.9293 77.075 20.7192 79.9371 20.7192C82.2204 20.7192 83.6477 20.0273 85.0009 18.7623L86.9555 21.1392C85.1138 22.8203 82.7715 23.79 79.8065 23.79C74.4201 23.79 71.2092 19.8903 71.2092 14.9959M91.8069 9.51558H88.4203V6.52458H91.8071V1.57781H95.3569V6.52458H100.502V9.51581H95.3569V17.0977C95.3569 19.6863 96.1903 20.6061 98.2389 20.6061C99.1742 20.6061 99.7101 20.5263 100.502 20.3954V23.3543C99.5156 23.631 98.5741 23.7582 97.5549 23.7582C93.7225 23.7582 91.8071 21.6792 91.8071 17.5177L91.8069 9.51558ZM115.45 12.4247C114.737 10.6373 113.146 9.32127 110.809 9.32127C107.771 9.32127 105.827 11.4612 105.827 14.9474C105.827 18.346 107.617 20.5895 110.663 20.5895C113.059 20.5895 114.768 19.206 115.45 17.4847V12.4247ZM119 23.3862H115.515V21.0259C114.541 22.4156 112.769 23.7905 109.898 23.7905C105.281 23.7905 102.195 19.9528 102.195 14.9474C102.195 9.89473 105.355 6.11958 110.094 6.11958C112.436 6.11958 114.274 7.04958 115.515 8.69081V6.52458H119L119 23.3862Z" fill="#F8F8FF"/>
</g>
<defs>
<linearGradient id="paint0_linear_0_196" x1="461.36" y1="1331.52" x2="2943.75" y2="1457.8" gradientUnits="userSpaceOnUse">
<stop stop-color="#0064E1"/>
<stop offset="0.4" stop-color="#0064E1"/>
<stop offset="0.83" stop-color="#0073EE"/>
<stop offset="1" stop-color="#0082FB"/>
</linearGradient>
<linearGradient id="paint1_linear_0_196" x1="564.873" y1="1732.42" x2="564.873" y2="822.599" gradientUnits="userSpaceOnUse">
<stop stop-color="#0082FB"/>
<stop offset="1" stop-color="#0064E0"/>
</linearGradient>
<clipPath id="clip0_0_196">
<rect width="119" height="24" fill="white"/>
</clipPath>
</defs>
</svg>
