<svg width="65" height="65" viewBox="0 0 65 65" fill="none" xmlns="http://www.w3.org/2000/svg">
<path d="M54.1693 21.666L37.9193 5.41602H16.2526C14.816 5.41602 13.4383 5.9867 12.4224 7.00252C11.4066 8.01834 10.8359 9.39609 10.8359 10.8327V54.166C10.8359 55.6026 11.4066 56.9804 12.4224 57.9962C13.4383 59.012 14.816 59.5827 16.2526 59.5827H48.7526C50.1892 59.5827 51.5669 59.012 52.5828 57.9962C53.5986 56.9804 54.1693 55.6026 54.1693 54.166V21.666ZM24.3776 51.4577H18.9609V27.0827H24.3776V51.4577ZM35.2109 51.4577H29.7943V35.2077H35.2109V51.4577ZM46.0443 51.4577H40.6276V43.3327H46.0443V51.4577ZM37.9193 24.3743H35.2109V10.8327L48.7526 24.3743H37.9193Z" fill="#F8F8FF"/>
</svg>
