<svg width="75" height="75" viewBox="0 0 75 75" fill="none" xmlns="http://www.w3.org/2000/svg">
<g clip-path="url(#clip0_0_103)">
<path d="M24.9974 33.6251H23.1849C20.7115 33.5357 18.2461 33.9556 15.9417 34.8587C13.6373 35.7618 11.5431 37.1289 9.78906 38.8751L9.28906 39.4584V56.7084H17.7891V46.9167L18.9349 45.6251L19.4557 45.0209C22.1681 42.2344 25.5449 40.184 29.2682 39.0626C27.4041 37.6441 25.9338 35.7722 24.9974 33.6251Z" fill="#F8F8FF"/>
<path d="M65.2943 38.8126C63.5402 37.0664 61.446 35.6993 59.1417 34.7962C56.8373 33.8931 54.3719 33.4732 51.8984 33.5626C51.1398 33.5647 50.3819 33.6064 49.6276 33.6876C48.6736 35.702 47.2436 37.4538 45.4609 38.7917C49.4359 39.8914 53.0367 42.0519 55.8776 45.0417L56.3984 45.6251L57.5234 46.9167V56.7292H65.7318V39.3959L65.2943 38.8126Z" fill="#F8F8FF"/>
<path d="M23.1267 29.5618H23.7725C23.4724 26.9853 23.9245 24.3769 25.0743 22.0516C26.224 19.7263 28.0221 17.7835 30.2517 16.4577C29.4435 15.223 28.3285 14.2194 27.0159 13.5451C25.7032 12.8708 24.238 12.5489 22.7636 12.6111C21.2893 12.6732 19.8563 13.1172 18.6051 13.8995C17.3538 14.6818 16.3272 15.7757 15.6258 17.074C14.9243 18.3723 14.5721 19.8306 14.6035 21.3059C14.6349 22.7813 15.049 24.2232 15.8051 25.4904C16.5613 26.7576 17.6336 27.8068 18.917 28.5351C20.2004 29.2634 21.651 29.6459 23.1267 29.6452V29.5618Z" fill="#F8F8FF"/>
<path d="M50.8932 27.9996C50.9185 28.4785 50.9185 28.9583 50.8932 29.4371C51.293 29.5005 51.6968 29.5353 52.1016 29.5413H52.4974C53.9666 29.463 55.3905 29.0055 56.6304 28.2135C57.8703 27.4216 58.8841 26.322 59.5729 25.022C60.2618 23.7219 60.6023 22.2656 60.5612 20.7949C60.5202 19.3242 60.099 17.8892 59.3388 16.6295C58.5785 15.3699 57.505 14.3286 56.2229 13.607C54.9407 12.8854 53.4935 12.508 52.0223 12.5117C50.551 12.5154 49.1057 12.9 47.8272 13.6281C46.5487 14.3562 45.4805 15.4029 44.7266 16.6663C46.6122 17.8974 48.1626 19.5773 49.2389 21.5554C50.3152 23.5335 50.8837 25.7477 50.8932 27.9996Z" fill="#F8F8FF"/>
<path d="M37.2266 37.334C42.3697 37.334 46.5391 33.1646 46.5391 28.0215C46.5391 22.8783 42.3697 18.709 37.2266 18.709C32.0834 18.709 27.9141 22.8783 27.9141 28.0215C27.9141 33.1646 32.0834 37.334 37.2266 37.334Z" fill="#F8F8FF"/>
<path d="M37.7318 42.2921C35.011 42.1823 32.2962 42.624 29.7506 43.5906C27.205 44.5573 24.8813 46.029 22.9193 47.9171L22.3984 48.5004V61.6879C22.4066 62.1175 22.4992 62.5412 22.6712 62.935C22.8431 63.3287 23.0909 63.6847 23.4005 63.9826C23.71 64.2806 24.0752 64.5146 24.4752 64.6714C24.8752 64.8281 25.3022 64.9046 25.7318 64.8963H49.6693C50.0988 64.9046 50.5258 64.8281 50.9258 64.6714C51.3258 64.5146 51.691 64.2806 52.0006 63.9826C52.3101 63.6847 52.5579 63.3287 52.7299 62.935C52.9018 62.5412 52.9945 62.1175 53.0026 61.6879V48.5421L52.5026 47.9171C50.5533 46.0232 48.2377 44.5474 45.6977 43.5801C43.1578 42.6129 40.4471 42.1746 37.7318 42.2921Z" fill="#F8F8FF"/>
</g>
<defs>
<clipPath id="clip0_0_103">
<rect width="75" height="75" fill="white"/>
</clipPath>
</defs>
</svg>
