<svg width="57" height="36" viewBox="0 0 57 36" fill="none" xmlns="http://www.w3.org/2000/svg">
<path d="M56.9994 28.1948C56.9994 25.0732 55.7597 22.9946 52.6603 20.8082L48.421 17.8421C48.3426 17.7895 48.2785 17.7345 48.2025 17.6795C46.7086 16.548 46.0413 15.4979 46.0413 14.2589C46.0413 12.594 47.3879 11.5559 49.2974 11.5559C51.7246 11.5559 52.8669 12.6969 54.3109 12.6969C55.4485 12.6969 56.2228 11.9171 56.2228 10.7737C56.2228 9.94126 55.8095 9.26432 54.7242 8.74525C53.0189 7.91282 51.1546 7.59708 49.143 7.59708C47.0245 7.59708 45.1625 8.22379 43.8207 9.26432C43.5495 9.47434 43.291 9.698 43.0464 9.93887L43.0274 9.96279C41.4837 11.6253 40.2012 14.0627 39.1728 17.4857L37.983 21.4373C35.8621 28.4029 32.5063 31.7326 27.2861 31.7326C21.5505 31.7326 17.9334 27.726 17.9334 21.7985C17.9334 15.895 21.5173 11.8525 26.6971 11.8166L26.7683 11.8118C28.4822 11.8005 30.1771 12.1739 31.7297 12.905C32.3994 13.2159 32.9694 13.3212 33.4871 13.3212C33.7246 13.3212 33.9431 13.2805 34.1498 13.2231C35.0095 12.9767 35.5557 12.2472 35.5557 11.2377C35.5557 10.4579 35.0903 9.67575 34.0049 9.15668C32.0408 8.16638 29.5067 7.59469 26.7707 7.59469C24.7282 7.59469 22.8449 7.95827 21.1682 8.63761C16.1403 10.6732 12.9697 15.541 12.9697 21.9014C12.9697 24.1284 13.3735 26.1664 14.1097 27.9676C13.0362 30.3237 11.3951 31.5771 9.25053 31.5771C6.66893 31.5771 4.96607 30.0702 4.96132 26.6496V11.9649H11.008C12.4045 11.9649 13.3331 11.1325 13.3331 9.93648C13.3331 8.74047 12.4069 7.90804 11.0056 7.90804H4.9637V2.60253C4.9637 1.04053 3.93058 0 2.48422 0C1.03311 0 0 1.04292 0 2.60253V27.2045C0 32.9286 3.25372 35.9474 8.78741 35.9474C9.94165 35.9498 11.0911 35.756 12.1836 35.3733H12.1955C14.0024 34.7054 15.5223 33.425 16.4942 31.7518C18.9499 34.4237 22.586 35.9976 27.1341 35.9976C29.5067 35.9976 31.5705 35.5312 33.4278 34.5456H33.4349C37.2064 32.5674 39.8948 28.5608 41.7544 22.4229L42.8398 18.8348C42.7028 18.6545 42.5744 18.4677 42.4551 18.2751C43.1865 19.452 44.3194 20.5547 45.9415 21.6957L49.8151 24.3987C50.3946 24.8053 50.9147 25.212 51.4016 25.6186C52.088 26.3888 52.2993 27.2213 52.2993 28.1972C52.2993 30.4338 50.5418 31.9431 48.0077 31.9431C45.5805 31.9431 43.5119 30.6945 42.3767 30.6945C41.2414 30.6945 40.4625 31.4719 40.4625 32.6177C40.4625 33.4501 40.8757 34.1246 41.9634 34.6461C43.462 35.3733 45.8893 36 48.06 36C50.7983 36 53.0736 35.1676 54.6743 33.7108C54.8066 33.5914 54.9304 33.4627 55.0448 33.3257C56.3239 31.9302 57.0234 30.094 56.9994 28.1948Z" fill="#F8F8FF"/>
</svg>
